<svg xmlns="http://www.w3.org/2000/svg" width="57" height="55" fill="none" viewBox="0 0 57 55">
    <path fill="#fff" d="M28.5 0C12.754 0 0 12.626 0 28.198c0 12.46 8.165 23.028 19.487 26.753 1.425.266 1.947-.607 1.947-1.355 0-.67-.023-2.444-.035-4.795-7.928 1.7-9.6-3.783-9.6-3.783-1.297-3.255-3.17-4.125-3.17-4.125-2.582-1.748.199-1.712.199-1.712 2.862.196 4.365 2.905 4.365 2.905 2.541 4.312 6.671 3.066 8.3 2.346.257-1.824.991-3.065 1.806-3.77-6.33-.706-12.982-3.131-12.982-13.935 0-3.077 1.104-5.593 2.933-7.566-.32-.712-1.282-3.58.25-7.463 0 0 2.386-.756 7.837 2.891 2.28-.626 4.703-.937 7.125-.952 2.422.015 4.845.326 7.125.952 5.415-3.647 7.802-2.89 7.802-2.89 1.532 3.883.57 6.75.285 7.462 1.817 1.973 2.921 4.489 2.921 7.566 0 10.833-6.662 13.217-13.003 13.91.998.847 1.924 2.576 1.924 5.218 0 3.773-.036 6.806-.036 7.721 0 .74.499 1.622 1.96 1.34C48.842 51.214 57 40.64 57 28.198 57 12.626 44.24 0 28.5 0z"/>
</svg>
