<svg xmlns="http://www.w3.org/2000/svg" width="57" height="57" fill="none" viewBox="0 0 57 57">
    <path fill="#fff" d="M33.955 28.5a5.455 5.455 0 11-10.91 0 5.455 5.455 0 0110.91 0z"/>
    <path fill="#fff" d="M41.258 18.848a5.07 5.07 0 00-1.225-1.881 5.067 5.067 0 00-1.881-1.224c-.577-.225-1.443-.491-3.039-.564-1.726-.078-2.243-.095-6.613-.095-4.37 0-4.887.016-6.613.095-1.596.073-2.462.34-3.039.563a5.063 5.063 0 00-1.881 1.225 5.074 5.074 0 00-1.225 1.881c-.224.577-.49 1.444-.563 3.04-.079 1.725-.096 2.242-.096 6.612s.017 4.888.096 6.614c.072 1.595.34 2.461.563 3.038.263.711.68 1.354 1.224 1.882.528.543 1.17.962 1.882 1.224.577.224 1.443.49 3.039.563 1.726.08 2.242.096 6.613.096 4.37 0 4.888-.017 6.613-.096 1.595-.072 2.462-.339 3.039-.563a5.419 5.419 0 003.105-3.106c.224-.577.491-1.443.564-3.038.079-1.726.095-2.244.095-6.614 0-4.37-.016-4.887-.095-6.613-.072-1.595-.34-2.462-.563-3.039zM28.5 36.904a8.403 8.403 0 110-16.808 8.404 8.404 0 110 16.808zm8.736-15.176a1.964 1.964 0 110-3.928 1.964 1.964 0 010 3.928z"/>
    <path fill="#fff" d="M28.5 0C12.762 0 0 12.762 0 28.5S12.762 57 28.5 57 57 44.238 57 28.5 44.238 0 28.5 0zm16.267 35.247c-.08 1.742-.357 2.932-.761 3.973a8.368 8.368 0 01-4.786 4.786c-1.041.404-2.23.68-3.972.76-1.746.08-2.303.1-6.748.1-4.444 0-5.002-.02-6.747-.1-1.742-.08-2.932-.356-3.972-.76a8.015 8.015 0 01-2.9-1.888 8.02 8.02 0 01-1.886-2.898c-.405-1.041-.682-2.23-.761-3.972-.08-1.746-.1-2.304-.1-6.748 0-4.444.02-5.002.1-6.747.079-1.742.355-2.932.76-3.973a8.017 8.017 0 011.888-2.898 8.014 8.014 0 012.898-1.888c1.041-.404 2.23-.68 3.973-.76 1.745-.08 2.303-.1 6.747-.1s5.002.02 6.747.1c1.742.08 2.932.356 3.973.76a8.023 8.023 0 012.899 1.888 8.018 8.018 0 011.887 2.898c.405 1.041.681 2.23.761 3.973.08 1.745.098 2.303.098 6.747s-.019 5.002-.099 6.747z"/>
</svg>
