<svg xmlns="http://www.w3.org/2000/svg" width="57" height="57" fill="none" viewBox="0 0 57 57">
    <path fill="#fff" d="M28.5 0C12.762 0 0 12.762 0 28.5S12.762 57 28.5 57 57 44.238 57 28.5 44.238 0 28.5 0zm-8.282 43.084h-6.94V22.202h6.94v20.882zm-3.47-23.734h-.045c-2.33 0-3.836-1.603-3.836-3.607 0-2.05 1.553-3.608 3.927-3.608s3.836 1.559 3.88 3.608c0 2.004-1.506 3.607-3.926 3.607zm28.498 23.734h-6.94V31.912c0-2.807-1.005-4.722-3.516-4.722-1.918 0-3.06 1.292-3.562 2.538-.183.447-.228 1.07-.228 1.694v11.662h-6.94s.09-18.923 0-20.882H31v2.956c.922-1.423 2.573-3.446 6.255-3.446 4.567 0 7.991 2.984 7.991 9.398v11.974z"/>
</svg>
